# xmcd CD database file
#
# Track frame offsets:
#	150
#	26842
#	67520
#	95818
#	138693
#	166087
#	213095
#	240414
#	273394
#
# Disc length: 4121 seconds
#
# Revision: 0
# Processed by: cddbd v1.5.2PL0 Copyright (c) Steve Scherf et al.
# Submitted via: CDex 1.51
#
DISCID=75101709
DTITLE=Christian Winther - Steeple Chase
DYEAR=2004
DGENRE=Jazz
TTITLE0=High Ground
TTITLE1=Jitterburg Waltz
TTITLE2=Reflections
TTITLE3=The Redeemer
TTITLE4=Limehouse Blues
TTITLE5=Train Song
TTITLE6=When It's Sleepy Time Down South
TTITLE7=Worry Later
TTITLE8=Word of the Deacon
EXTD=YEAR: 2004
EXTT0=
EXTT1=
EXTT2=
EXTT3=
EXTT4=
EXTT5=
EXTT6=
EXTT7=
EXTT8=
PLAYORDER=
